<svg xmlns="http://www.w3.org/2000/svg" xml:space="preserve" id="checkout-delivery" x="0" y="0" style="enable-background:new 0 0 24 24" version="1.1" viewBox="0 0 24 24">
  <g>
    <g>
      <path d="M4.5,22h-3C0.7,22,0,21.3,0,20.5v-7C0,13.2,0.2,13,0.5,13S1,13.2,1,13.5v7C1,20.8,1.2,21,1.5,21h3C4.8,21,5,21.2,5,21.5
			S4.8,22,4.5,22z"></path>
    </g>
    <g>
      <path d="M16.5,22h-8C8.2,22,8,21.8,8,21.5S8.2,21,8.5,21H16V10.5c0-0.6-0.4-1.2-0.9-1.4c-0.3-0.1-0.4-0.4-0.3-0.6
			c0.1-0.3,0.4-0.4,0.6-0.3c1,0.4,1.6,1.3,1.6,2.3v11C17,21.8,16.8,22,16.5,22z"></path>
    </g>
    <g>
      <path d="M6.5,13C2.9,13,0,10.1,0,6.5S2.9,0,6.5,0S13,2.9,13,6.5S10.1,13,6.5,13z M6.5,1C3.5,1,1,3.5,1,6.5S3.5,12,6.5,12
			S12,9.5,12,6.5S9.5,1,6.5,1z"></path>
    </g>
    <g>
      <path d="M5.5,9C5.4,9,5.2,9,5.1,8.9l-2-2C3,6.7,3,6.3,3.1,6.1s0.5-0.2,0.7,0l1.6,1.6l3.6-3.6C9.3,4,9.7,4,9.9,4.1s0.2,0.5,0,0.7
			l-4,4C5.8,9,5.6,9,5.5,9z"></path>
    </g>
    <g>
      <path d="M17.5,22h-1c-0.3,0-0.5-0.2-0.5-0.5s0.2-0.5,0.5-0.5h1c0.3,0,0.5,0.2,0.5,0.5S17.8,22,17.5,22z"></path>
    </g>
    <g>
      <path d="M22.5,22h-1c-0.3,0-0.5-0.2-0.5-0.5s0.2-0.5,0.5-0.5h1c0.3,0,0.5-0.2,0.5-0.5v-3.3c0-0.3-0.1-0.6-0.3-0.9l-2-2.7
			C20.4,13.2,20,13,19.5,13h-3c-0.3,0-0.5-0.2-0.5-0.5s0.2-0.5,0.5-0.5h3c0.8,0,1.5,0.4,2,1l2,2.7c0.3,0.4,0.5,1,0.5,1.5v3.3
			C24,21.3,23.3,22,22.5,22z"></path>
    </g>
    <g>
      <path d="M19.5,24c-1.4,0-2.5-1.1-2.5-2.5s1.1-2.5,2.5-2.5s2.5,1.1,2.5,2.5S20.9,24,19.5,24z M19.5,20c-0.8,0-1.5,0.7-1.5,1.5
			s0.7,1.5,1.5,1.5s1.5-0.7,1.5-1.5S20.3,20,19.5,20z"></path>
    </g>
    <g>
      <path d="M23.2,17h-3.8c-0.3,0-0.5-0.2-0.5-0.5s0.2-0.5,0.5-0.5h3.8c0.3,0,0.5,0.2,0.5,0.5S23.5,17,23.2,17z"></path>
    </g>
    <g>
      <path d="M6.5,24C5.1,24,4,22.9,4,21.5S5.1,19,6.5,19S9,20.1,9,21.5S7.9,24,6.5,24z M6.5,20C5.7,20,5,20.7,5,21.5S5.7,23,6.5,23
			S8,22.3,8,21.5S7.3,20,6.5,20z"></path>
    </g>
  </g>
</svg>
