<svg xmlns="http://www.w3.org/2000/svg" enable-background="new 0 0 100 100" viewBox="0 0 100 100" id="truck">
  <path d="M64.5,22.3H9.3v47.3h4.3c0.7,4.9,4.9,8.7,10,8.7s9.3-3.8,10-8.7h30.9V66h2.2c0,0.4-0.1,0.7-0.1,1.1
		c0,5.6,4.5,10.1,10.1,10.1s10.1-4.5,10.1-10.1c0-0.4,0-0.7-0.1-1.1h4.4l-1.3-19.5l-9.5-14.1H64.4V22.3H64.5z M30.7,68.2
		c0,3.9-3.2,7.1-7.1,7.1s-7.1-3.2-7.1-7.1s3.2-7.1,7.1-7.1S30.7,64.3,30.7,68.2z M61.5,66.7H33.6c-0.8-4.8-4.9-8.5-10-8.5
		s-9.2,3.7-10,8.5h-1.4V25.3h49.2L61.5,66.7L61.5,66.7z M83.9,67.1c0,3.9-3.2,7.1-7.1,7.1s-7.1-3.2-7.1-7.1s3.2-7.1,7.1-7.1
		C80.7,60,83.9,63.2,83.9,67.1z M78.8,35.3L87,47.5L88,63h-2c-1.6-3.5-5.1-6-9.2-6s-7.7,2.5-9.2,6h-3V35.3H78.8z"></path>
  <path d="M84.4,47.9L78,37.1H65.1v10.8C65.1,47.9,84.4,47.9,84.4,47.9z M68.1,40.1h8.2l2.8,4.8h-11V40.1z"></path>
</svg>
